<svg id="Shield" xmlns="http://www.w3.org/2000/svg" viewBox="0 0 302.07 49.32"><defs><style>.cls-1{fill:#223143;}.cls-2{fill:#7fd0ca;}</style></defs><title>Logo</title><path class="cls-1" d="M6.92,40.28a3,3,0,0,1-2.25-.8,3.23,3.23,0,0,1-.78-2.33V7.08a3.38,3.38,0,0,1,.78-2.4,2.68,2.68,0,0,1,2.05-.83,2.94,2.94,0,0,1,1.74.42,8.17,8.17,0,0,1,1.4,1.45L29.21,30.83H27.9V6.93a3.15,3.15,0,0,1,.78-2.28,3,3,0,0,1,2.25-.8,2.91,2.91,0,0,1,2.22.8,3.19,3.19,0,0,1,.76,2.28V37.25a3.23,3.23,0,0,1-.71,2.23,2.44,2.44,0,0,1-1.92.8,3.3,3.3,0,0,1-1.84-.45A6.76,6.76,0,0,1,28,38.36L8.64,13.25H9.91v23.9a3.32,3.32,0,0,1-.76,2.33A3,3,0,0,1,6.92,40.28Z"/><path class="cls-1" d="M53.27,40.39A15.62,15.62,0,0,1,46,38.82a11.15,11.15,0,0,1-4.67-4.45,13.48,13.48,0,0,1-1.65-6.82,13.58,13.58,0,0,1,1.6-6.72,11.73,11.73,0,0,1,4.39-4.53,13.34,13.34,0,0,1,11.12-.78A9.85,9.85,0,0,1,60.42,18a10.89,10.89,0,0,1,2.27,3.91,15.83,15.83,0,0,1,.79,5.18,1.64,1.64,0,0,1-.63,1.39,2.94,2.94,0,0,1-1.8.48H44.83V25.32H59l-.81.76a9.86,9.86,0,0,0-.68-3.89,5.35,5.35,0,0,0-2-2.4A5.76,5.76,0,0,0,52.36,19a6.48,6.48,0,0,0-3.62,1,6.27,6.27,0,0,0-2.27,2.78A10.67,10.67,0,0,0,45.69,27v.36q0,4.14,1.94,6.19a7.57,7.57,0,0,0,5.74,2,15.21,15.21,0,0,0,3-.32,10.7,10.7,0,0,0,3.1-1.14,3.21,3.21,0,0,1,1.87-.53,1.94,1.94,0,0,1,1.29.58,2.14,2.14,0,0,1,.58,1.24,2.51,2.51,0,0,1-.27,1.49,3.43,3.43,0,0,1-1.29,1.31,13.11,13.11,0,0,1-4.07,1.64A18.83,18.83,0,0,1,53.27,40.39Z"/><path class="cls-1" d="M70,40.13a2.73,2.73,0,0,1-1.85-.63,2.15,2.15,0,0,1-.76-1.64,3.37,3.37,0,0,1,.84-2.12l8.18-10.11v3l-7.68-9.45A3.21,3.21,0,0,1,67.87,17a2.27,2.27,0,0,1,.79-1.65,2.72,2.72,0,0,1,1.84-.63,4.23,4.23,0,0,1,2,.41,4.42,4.42,0,0,1,1.44,1.26L80,24.21H77.73l6.11-7.78a5.08,5.08,0,0,1,1.47-1.26,4,4,0,0,1,1.87-.41,2.64,2.64,0,0,1,1.87.66,2.24,2.24,0,0,1,.73,1.67,3.29,3.29,0,0,1-.88,2.12l-7.63,9.35V25.73l8.18,10a2.92,2.92,0,0,1,.86,2.07,2.3,2.3,0,0,1-.78,1.67,2.77,2.77,0,0,1-1.9.65,4,4,0,0,1-1.87-.4,5,5,0,0,1-1.46-1.27l-6.57-8.28h2.12l-6.52,8.28a5,5,0,0,1-1.41,1.24A3.84,3.84,0,0,1,70,40.13Z"/><path class="cls-1" d="M108.76,40.39a30.39,30.39,0,0,1-4.45-.33,23.55,23.55,0,0,1-4.19-1,16.13,16.13,0,0,1-3.54-1.7,3.18,3.18,0,0,1-1.26-1.46,3.08,3.08,0,0,1-.23-1.7,2.83,2.83,0,0,1,.66-1.46A2.22,2.22,0,0,1,97.09,32a2.42,2.42,0,0,1,1.76.45,17.11,17.11,0,0,0,4.7,1.92,21.61,21.61,0,0,0,5.21.61q4,0,5.81-1.34a4.1,4.1,0,0,0,1.82-3.46,3.33,3.33,0,0,0-1.29-2.78,11.1,11.1,0,0,0-4.42-1.67l-5.56-1.16A13.73,13.73,0,0,1,98,21.1a8.65,8.65,0,0,1-2.35-6.34,10,10,0,0,1,1-4.5,10.26,10.26,0,0,1,2.86-3.48,13.11,13.11,0,0,1,4.39-2.25,19.22,19.22,0,0,1,5.64-.79,21.65,21.65,0,0,1,5.76.76,16.73,16.73,0,0,1,4.9,2.23,2.74,2.74,0,0,1,1.09,1.36,3.11,3.11,0,0,1,.13,1.59,2.57,2.57,0,0,1-.71,1.34,2.33,2.33,0,0,1-1.39.66,3.09,3.09,0,0,1-1.9-.51,14.42,14.42,0,0,0-3.79-1.51,17.56,17.56,0,0,0-4.14-.46,10.82,10.82,0,0,0-4,.66,5.68,5.68,0,0,0-2.56,1.84,4.59,4.59,0,0,0-.88,2.81,3.72,3.72,0,0,0,1.21,2.91,9.19,9.19,0,0,0,4.15,1.69l5.5,1.16a15.61,15.61,0,0,1,7.46,3.34,7.87,7.87,0,0,1,2.45,6.06A9.46,9.46,0,0,1,119,37.45a13.34,13.34,0,0,1-4.42,2.18A20.76,20.76,0,0,1,108.76,40.39Z"/><path class="cls-1" d="M138.93,40.39a12.07,12.07,0,0,1-5.48-1.12A7.06,7.06,0,0,1,130.19,36a11.94,11.94,0,0,1-1.06-5.33V19.92H126.5a2.6,2.6,0,0,1-1.87-.63,2.33,2.33,0,0,1-.66-1.75,2.3,2.3,0,0,1,.66-1.77,2.68,2.68,0,0,1,1.87-.6h2.63v-4.6A3.15,3.15,0,0,1,130,8.19a3.24,3.24,0,0,1,2.35-.81,3.16,3.16,0,0,1,2.33.81,3.26,3.26,0,0,1,.8,2.38v4.6h5.36a2.68,2.68,0,0,1,1.87.6,2.3,2.3,0,0,1,.66,1.77,2.33,2.33,0,0,1-.66,1.75,2.6,2.6,0,0,1-1.87.63h-5.36V30.33A5.38,5.38,0,0,0,136.51,34a4.32,4.32,0,0,0,3.43,1.21,6.86,6.86,0,0,0,1.52-.15,8.85,8.85,0,0,1,1.16-.2,1.15,1.15,0,0,1,1,.38A2.62,2.62,0,0,1,144,37a4.57,4.57,0,0,1-.33,1.79,1.9,1.9,0,0,1-1.19,1.09,15,15,0,0,1-1.72.38A11.36,11.36,0,0,1,138.93,40.39Z"/><path class="cls-1" d="M159,40.39a15.62,15.62,0,0,1-7.23-1.57A11.23,11.23,0,0,1,147,34.37a13.58,13.58,0,0,1-1.64-6.82A13.68,13.68,0,0,1,147,20.83a11.75,11.75,0,0,1,4.4-4.53,13.34,13.34,0,0,1,11.12-.78A9.93,9.93,0,0,1,166.1,18a10.89,10.89,0,0,1,2.27,3.91,16.1,16.1,0,0,1,.78,5.18,1.64,1.64,0,0,1-.63,1.39,2.91,2.91,0,0,1-1.79.48H150.51V25.32h14.2l-.81.76a9.86,9.86,0,0,0-.68-3.89,5.41,5.41,0,0,0-2-2.4A5.76,5.76,0,0,0,158,19a6.48,6.48,0,0,0-3.62,1,6.27,6.27,0,0,0-2.27,2.78,10.67,10.67,0,0,0-.79,4.27v.36q0,4.14,1.95,6.19a7.57,7.57,0,0,0,5.74,2,15,15,0,0,0,2.95-.32,10.77,10.77,0,0,0,3.11-1.14,3.21,3.21,0,0,1,1.87-.53,1.94,1.94,0,0,1,1.29.58,2.21,2.21,0,0,1,.58,1.24,2.45,2.45,0,0,1-.28,1.49,3.29,3.29,0,0,1-1.29,1.31,13,13,0,0,1-4.06,1.64A18.83,18.83,0,0,1,159,40.39Z"/><path class="cls-1" d="M177.29,49.38a3.12,3.12,0,0,1-2.32-.81,3.21,3.21,0,0,1-.81-2.37V18a3.22,3.22,0,0,1,.81-2.38,3,3,0,0,1,2.27-.81,3.16,3.16,0,0,1,2.33.81,3.26,3.26,0,0,1,.8,2.38v3.94l-.55-1.52a7.31,7.31,0,0,1,3.11-4.14,9.58,9.58,0,0,1,5.48-1.57,10.3,10.3,0,0,1,5.69,1.57,10.46,10.46,0,0,1,3.81,4.42,15.76,15.76,0,0,1,1.37,6.85,16,16,0,0,1-1.37,6.85,10.51,10.51,0,0,1-3.79,4.47,10.34,10.34,0,0,1-5.71,1.57A9.54,9.54,0,0,1,183,38.84a7.51,7.51,0,0,1-3.13-4h.61V46.2a3.14,3.14,0,0,1-.84,2.37A3.22,3.22,0,0,1,177.29,49.38Zm9.35-13.8a5.94,5.94,0,0,0,3.29-.91,5.84,5.84,0,0,0,2.19-2.7,11.08,11.08,0,0,0,.79-4.47c0-2.7-.58-4.71-1.72-6a5.72,5.72,0,0,0-4.55-2,6,6,0,0,0-3.28.89,5.72,5.72,0,0,0-2.2,2.67,11.09,11.09,0,0,0-.79,4.48,9.24,9.24,0,0,0,1.72,6A5.66,5.66,0,0,0,186.64,35.58Z"/><path class="cls-1" d="M209.28,39.88a4.87,4.87,0,0,1-3.61-1.24A4.87,4.87,0,0,1,204.43,35V9.1a4.87,4.87,0,0,1,1.24-3.61,4.87,4.87,0,0,1,3.61-1.24h17.19a3.63,3.63,0,0,1,2.65.91,3.52,3.52,0,0,1,.93,2.63,3.66,3.66,0,0,1-.93,2.7,3.6,3.6,0,0,1-2.65.94H213.28V18.2h12a3.61,3.61,0,0,1,2.68.91,3.61,3.61,0,0,1,.91,2.68,3.63,3.63,0,0,1-.91,2.65,3.58,3.58,0,0,1-2.68.94h-12V32.7h13.19a3.6,3.6,0,1,1,0,7.18Z"/><path class="cls-1" d="M240.16,40.39a4.6,4.6,0,0,1-3.48-1.27,4.82,4.82,0,0,1-1.22-3.49V9a4.72,4.72,0,0,1,1.24-3.54,4.81,4.81,0,0,1,3.51-1.21h12.44q6,0,9.29,3a10.47,10.47,0,0,1,3.29,8.21,11.37,11.37,0,0,1-1.47,5.91,9.54,9.54,0,0,1-4.29,3.82,15.89,15.89,0,0,1-6.82,1.34l.35-.91h2.48a7.07,7.07,0,0,1,3.79,1,8,8,0,0,1,2.78,3.16l2.47,4.55a5.2,5.2,0,0,1,.79,2.88,3.24,3.24,0,0,1-1.07,2.28,4.39,4.39,0,0,1-3.05.91,5.66,5.66,0,0,1-3.16-.81,7,7,0,0,1-2.2-2.53l-4.6-8.54A3.39,3.39,0,0,0,249.69,27a5,5,0,0,0-2.15-.43h-2.78v9a4.85,4.85,0,0,1-1.19,3.49A4.47,4.47,0,0,1,240.16,40.39ZM244.76,20h6.17A6.7,6.7,0,0,0,255,19a3.84,3.84,0,0,0,1.39-3.24A3.87,3.87,0,0,0,255,12.44a6.63,6.63,0,0,0-4.07-1.06h-6.17Z"/><path class="cls-1" d="M275.84,40.39a4.62,4.62,0,0,1-3.48-1.27,4.82,4.82,0,0,1-1.22-3.49V9a4.76,4.76,0,0,1,1.24-3.54,4.81,4.81,0,0,1,3.51-1.21h12.44q6,0,9.3,3.11c2.19,2.07,3.28,4.93,3.28,8.56s-1.09,6.5-3.28,8.57-5.29,3.11-9.3,3.11h-7.89v8a4.85,4.85,0,0,1-1.19,3.49A4.45,4.45,0,0,1,275.84,40.39Zm4.6-19.92h6.22a6.24,6.24,0,0,0,4-1.13,4.2,4.2,0,0,0,1.37-3.42,4.2,4.2,0,0,0-1.37-3.41,6.18,6.18,0,0,0-4-1.13h-6.22Z"/><path class="cls-2" d="M70.13,8.61l8.58,8.58,8.61-8.61L78.74,0Zm8.59,3.93L74.78,8.6h7.89Z"/></svg>